<svg width="12" height="12" viewBox="0 0 12 12" fill="none" xmlns="http://www.w3.org/2000/svg">
<g clip-path="url(#clip0)">
<path d="M8.05593 11.7863C7.99749 11.8074 7.93871 11.8328 7.87857 11.8434C7.6482 11.8845 7.50074 11.7656 7.49938 11.5301C7.49633 11.0928 7.49633 10.6562 7.50346 10.2189C7.51094 9.71607 7.49938 9.21967 7.11646 8.80481C7.34411 8.76404 7.54661 8.7355 7.7447 8.68997C9.05689 8.38859 9.73847 7.56091 9.82545 6.18722C9.86996 5.48797 9.74526 4.84649 9.28046 4.29572C9.24682 4.25699 9.24512 4.16899 9.26109 4.11258C9.38477 3.65729 9.34875 3.21253 9.20469 2.76743C9.16901 2.65633 9.10989 2.62201 9.00015 2.62915C8.61485 2.65055 8.26183 2.78578 7.9506 2.99372C7.65058 3.1952 7.37129 3.23903 7.01487 3.15749C6.23 2.98047 5.44004 3.03211 4.65687 3.21355C4.56819 3.23462 4.44893 3.20642 4.36772 3.15885C4.00009 2.94343 3.63246 2.73414 3.20843 2.65055C2.88055 2.58668 2.85201 2.60299 2.76503 2.91999C2.65562 3.31956 2.64475 3.71947 2.75653 4.12142C2.7725 4.17986 2.75585 4.27363 2.71678 4.31679C1.84799 5.28615 2.16262 7.11785 2.74804 7.81947C3.20333 8.36447 3.80812 8.60978 4.47951 8.73719C4.59673 8.75894 4.71327 8.77559 4.83049 8.79597C4.72992 9.0576 4.63954 9.30461 4.53727 9.54755C4.51722 9.59443 4.45369 9.63385 4.4017 9.65355C3.74323 9.90906 3.17717 9.72117 2.80036 9.12351C2.59888 8.80481 2.34032 8.56663 1.95502 8.49766C1.94278 8.49528 1.93021 8.48882 1.919 8.49052C1.81537 8.5177 1.71276 8.54624 1.60947 8.5741C1.66757 8.65497 1.70868 8.7637 1.78649 8.81228C2.11301 9.01886 2.32537 9.31344 2.46569 9.66103C2.6862 10.206 3.11431 10.449 3.67052 10.4965C3.94199 10.5186 4.21619 10.4999 4.51349 10.4999C4.51349 10.8383 4.52572 11.2247 4.50839 11.6093C4.49955 11.8165 4.29128 11.8994 4.04188 11.8145C3.38035 11.5882 2.76707 11.2637 2.23737 10.8078C0.324799 9.16021 -0.412502 7.07742 0.223208 4.63957C0.856879 2.20953 2.5085 0.71896 4.97795 0.251097C8.39502 -0.395146 11.632 2.09333 11.9711 5.56204C12.2388 8.29651 10.6293 10.8553 8.05593 11.7863ZM4.83457 8.78306C4.83253 8.78782 4.83117 8.79122 4.82913 8.79597C4.83525 8.79699 4.84136 8.79801 4.84782 8.79903C4.85258 8.79937 4.85665 8.80787 4.83457 8.78306ZM3.28861 9.86387C3.34196 9.89683 3.39292 9.93862 3.45068 9.95663C3.47175 9.96342 3.51082 9.91552 3.5798 9.86455C3.48398 9.8282 3.42758 9.79626 3.36812 9.7881C3.34502 9.78538 3.31512 9.83737 3.28861 9.86387ZM3.7755 9.94746C3.78332 9.98313 3.85433 10.0276 3.89612 10.027C3.93656 10.0263 3.97597 9.9726 4.0164 9.94202C3.97971 9.90838 3.94301 9.87576 3.83021 9.77417C3.80574 9.84484 3.76531 9.90193 3.7755 9.94746ZM4.37282 9.80373C4.32253 9.81562 4.28006 9.86217 4.23419 9.89411C4.26104 9.92809 4.28788 9.95969 4.33103 10.013C4.39049 9.95867 4.43092 9.92095 4.47169 9.88426C4.43772 9.8547 4.39796 9.79762 4.37282 9.80373ZM2.8921 9.60225C2.91996 9.65491 2.96311 9.70044 3.02155 9.77485C3.06063 9.71097 3.1031 9.66205 3.09562 9.6522C3.05859 9.60361 3.0083 9.56385 2.9587 9.5275C2.9553 9.52478 2.88633 9.5907 2.8921 9.60225Z" fill="white"/>
</g>
<defs>
<clipPath id="clip0">
<rect width="12" height="12" fill="white"/>
</clipPath>
</defs>
</svg>
